<svg width="109" height="98" viewBox="0 0 109 98" fill="none" xmlns="http://www.w3.org/2000/svg">
<path d="M54.75 58.7969C60.1607 58.7969 64.5469 54.4107 64.5469 49C64.5469 43.5893 60.1607 39.2031 54.75 39.2031C49.3393 39.2031 44.9531 43.5893 44.9531 49C44.9531 54.4107 49.3393 58.7969 54.75 58.7969Z" fill="#61DAFB"/>
<path d="M91.9609 32.8437C90.0703 32.1562 88.0938 31.4688 86.0312 30.8672C86.5469 28.8047 86.9766 26.7422 87.3203 24.7656C89.125 13.4219 87.1484 5.42969 81.6484 2.33594C80.0156 1.39062 78.2109 0.960938 76.1484 0.960938C70.1328 0.960938 62.4844 5.42969 54.75 12.9062C47.0156 5.42969 39.3672 0.960938 33.3516 0.960938C31.2891 0.960938 29.4844 1.39062 27.8516 2.33594C22.3516 5.51562 20.375 13.5078 22.1797 24.7656C22.5234 26.7422 22.9531 28.8047 23.4688 30.8672C21.4062 31.4688 19.4297 32.0703 17.5391 32.8437C6.79688 36.9688 0.953125 42.6406 0.953125 49C0.953125 55.3594 6.88281 61.0313 17.5391 65.1563C19.4297 65.8438 21.4062 66.5312 23.4688 67.1328C22.9531 69.1953 22.5234 71.2578 22.1797 73.2344C20.375 84.5781 22.3516 92.5703 27.8516 95.6641C29.4844 96.6094 31.2891 97.0391 33.3516 97.0391C39.4531 97.0391 47.1016 92.5703 54.75 85.0938C62.4844 92.5703 70.1328 97.0391 76.1484 97.0391C78.2109 97.0391 80.0156 96.6094 81.6484 95.6641C87.1484 92.4844 89.125 84.4922 87.3203 73.2344C86.9766 71.2578 86.5469 69.1953 86.0312 67.1328C88.0938 66.5312 90.0703 65.9297 91.9609 65.1563C102.703 61.0313 108.547 55.3594 108.547 49C108.547 42.6406 102.703 36.9688 91.9609 32.8437ZM79.2422 6.63281C82.7656 8.69531 83.9688 15.0547 82.5078 24.0781C82.25 25.8828 81.8203 27.7734 81.3047 29.75C76.8359 28.7188 72.1094 28.0312 67.125 27.6016C64.2031 23.4766 61.1953 19.7812 58.1875 16.4297C64.5469 10.1562 70.9922 5.85938 76.2344 5.85938C77.3516 5.85938 78.3828 6.11719 79.2422 6.63281ZM69.6172 57.5938C68.0703 60.3438 66.2656 63.0938 64.375 65.8438C61.1953 66.1016 58.0156 66.1875 54.75 66.1875C51.3984 66.1875 48.2187 66.1016 45.125 65.8438C43.2344 63.0938 41.5156 60.3438 39.9687 57.5938C38.3359 54.7578 36.7891 51.8359 35.4141 49C36.7891 46.1641 38.3359 43.2422 39.9687 40.4062C41.5156 37.6562 43.3203 34.9063 45.2109 32.1563C48.3906 31.8984 51.5703 31.8125 54.8359 31.8125C58.1875 31.8125 61.3672 31.8984 64.4609 32.1563C66.3516 34.9063 68.0703 37.6562 69.6172 40.4062C71.25 43.2422 72.7969 46.1641 74.1719 49C72.7109 51.8359 71.25 54.6719 69.6172 57.5938ZM76.75 54.7578C78.0391 57.7656 79.0703 60.6875 80.0156 63.6094C77.0938 64.2969 74 64.8125 70.7344 65.2422C71.7656 63.6094 72.8828 61.8906 73.8281 60.0859C74.8594 58.2813 75.8047 56.4766 76.75 54.7578ZM54.75 78.0469C52.6875 75.8125 50.7109 73.4062 48.8203 70.9141C50.7969 71 52.7734 71.0859 54.75 71.0859C56.7266 71.0859 58.7031 71 60.6797 70.9141C58.7891 73.4062 56.8125 75.8125 54.75 78.0469ZM38.7656 65.1563C35.5 64.7266 32.4062 64.2109 29.4844 63.5234C30.4297 60.6875 31.4609 57.6797 32.75 54.6719C33.6953 56.3906 34.6406 58.1953 35.6719 59.9141C36.7031 61.8047 37.7344 63.4375 38.7656 65.1563ZM32.75 43.2422C31.4609 40.2344 30.4297 37.3125 29.4844 34.3906C32.4062 33.7031 35.5 33.1875 38.7656 32.7578C37.7344 34.3906 36.6172 36.1094 35.6719 37.9141C34.6406 39.7188 33.6953 41.5234 32.75 43.2422ZM54.75 19.9531C56.8125 22.1875 58.7891 24.5938 60.6797 27.0859C58.7031 27 56.7266 26.9141 54.75 26.9141C52.7734 26.9141 50.7969 27 48.8203 27.0859C50.7109 24.5938 52.6875 22.1875 54.75 19.9531ZM73.8281 38L70.7344 32.8437C74 33.2734 77.0938 33.7891 80.0156 34.4766C79.0703 37.3125 78.0391 40.3203 76.75 43.3281C75.8047 41.5234 74.8594 39.7188 73.8281 38ZM26.9922 24.0781C25.5312 15.0547 26.7344 8.69531 30.2578 6.63281C31.1172 6.11719 32.1484 5.85938 33.2656 5.85938C38.4219 5.85938 44.8672 10.0703 51.3125 16.4297C48.3047 19.6953 45.2969 23.4766 42.375 27.6016C37.3906 28.0312 32.6641 28.8047 28.1953 29.75C27.6797 27.7734 27.3359 25.8828 26.9922 24.0781ZM5.76562 49C5.76562 44.9609 10.6641 40.6641 19.2578 37.4844C20.9766 36.7969 22.8672 36.1953 24.7578 35.6797C26.1328 39.9766 27.8516 44.5312 29.9141 49.0859C27.8516 53.6406 26.0469 58.1094 24.7578 62.4062C12.8984 58.9688 5.76562 53.8125 5.76562 49ZM30.2578 91.3672C26.7344 89.3047 25.5312 82.9453 26.9922 73.9219C27.25 72.1172 27.6797 70.2266 28.1953 68.25C32.6641 69.2812 37.3906 69.9688 42.375 70.3984C45.2969 74.5234 48.3047 78.2188 51.3125 81.5703C44.9531 87.8438 38.5078 92.1406 33.2656 92.1406C32.1484 92.1406 31.1172 91.8828 30.2578 91.3672ZM82.5078 73.9219C83.9688 82.9453 82.7656 89.3047 79.2422 91.3672C78.3828 91.8828 77.3516 92.1406 76.2344 92.1406C71.0781 92.1406 64.6328 87.9297 58.1875 81.5703C61.1953 78.3047 64.2031 74.5234 67.125 70.3984C72.1094 69.9688 76.8359 69.1953 81.3047 68.25C81.8203 70.2266 82.1641 72.1172 82.5078 73.9219ZM90.2422 60.5156C88.5234 61.2031 86.6328 61.8047 84.7422 62.3203C83.3672 58.0234 81.6484 53.4688 79.5859 48.9141C81.6484 44.3594 83.4531 39.8906 84.7422 35.5938C96.6016 39.0313 103.734 44.1875 103.734 49C103.734 53.0391 98.75 57.3359 90.2422 60.5156Z" fill="#61DAFB"/>
</svg>
